<svg xmlns="http://www.w3.org/2000/svg" width="543.559" height="907.064" viewBox="0 0 271.779 453.532"><defs><style>@font-face {
        font-family: "Virgil";
        src: url("/assets/woff2/Virgil.woff2");
      }
      @font-face {
        font-family: "Cascadia";
        src: url("/assets/woff2/Cascadia.woff2");
      }</style></defs><g fill-opacity=".4" stroke-linecap="round" stroke-opacity=".4"><path fill="#ced4da" stroke-width="0" d="M93.34 3.41c12.49-4.91 28.81-3.47 43.03-2.32 14.22 1.14 29.21 3.69 42.28 9.2s26.08 14.43 36.15 23.86 18.33 20.92 24.25 32.69c5.91 11.77 10.07 24.91 11.23 37.95 1.16 13.04-.4 27.6-4.24 40.28-3.85 12.68-10.42 24.99-18.81 35.81-8.38 10.83-19.73 21.57-31.51 29.14-11.77 7.57-25.39 12.96-39.12 16.28-13.73 3.32-29.13 4.91-43.25 3.62-14.12-1.29-28.49-5.6-41.48-11.37-12.98-5.77-26.23-14.07-36.43-23.24-10.2-9.17-18.97-19.95-24.76-31.78-5.8-11.83-9.1-26.11-10.02-39.2-.93-13.09.58-26.67 4.46-39.33 3.87-12.66 10.7-25.98 18.77-36.61 8.08-10.62 15.74-19.24 29.7-27.16C67.56 13.31 96.32 3.95 107.69.87c11.36-3.08 13.76 0 14.08 1.87m51.08 6.56c13.51 3.11 27.37 13.21 38.1 22.02 10.73 8.81 20.15 19.42 26.29 30.82 6.15 11.39 8.69 24.52 10.58 37.55 1.89 13.03 3.77 27.96.77 40.63-3 12.68-11 24.39-18.77 35.4-7.76 11.01-16.83 22.7-27.81 30.68-10.98 7.97-24.43 13.49-38.06 17.2-13.64 3.71-29.08 5.56-43.76 5.06s-31.27-3.3-44.33-8.04c-13.07-4.74-23.81-11.82-34.04-20.39-10.22-8.57-20.71-19.46-27.31-31.05C7.9 157.59 4.27 143.65 2.17 130.7c-2.09-12.95-3.28-26.27-.25-39.22 3.02-12.95 10.74-26.95 18.4-38.47 7.66-11.51 16.1-22.89 27.54-30.61C59.3 14.69 75.14 10.46 88.98 6.71c13.85-3.75 27.76-6.94 41.95-6.8 14.18.15 36.24 5.69 43.18 7.65 6.93 1.95-.8 2.02-1.59 4.09" transform="translate(10 42.13)"/><path fill="none" stroke="#000" stroke-width="4" d="M80.29 7.94c11.9-5.89 27.18-6.53 41.21-6.97 14.03-.45 29.37.19 42.95 4.29 13.57 4.1 27.26 12.04 38.51 20.32 11.26 8.29 21.4 18.34 28.99 29.39 7.6 11.06 13.9 24 16.58 36.95 2.67 12.95 1.78 27.62-.51 40.76-2.28 13.15-6.52 26.64-13.19 38.1-6.68 11.46-16.31 21.94-26.85 30.66-10.54 8.71-23.06 16.93-36.4 21.63-13.34 4.7-29.32 6.44-43.63 6.57-14.3.13-28.69-1.71-42.21-5.79-13.51-4.08-27.67-10.49-38.89-18.68-11.21-8.2-20.92-19.41-28.41-30.5-7.49-11.1-13.64-23.1-16.51-36.05-2.88-12.94-3.07-28.65-.72-41.61 2.34-12.97 7.92-24.76 14.78-36.18 6.87-11.42 15.34-23.18 26.4-32.34C53.45 19.32 74.78 9.16 82.37 5.84c7.6-3.31 4.87.97 5.58 2.76m68.22-4.83c13.62 1.01 26.92 8.31 38.86 15.75 11.94 7.44 24.12 18.31 32.78 28.9s15.36 21.74 19.17 34.63c3.81 12.88 5.14 29.11 3.69 42.67-1.44 13.56-6.16 27.11-12.35 38.69-6.19 11.58-14.95 21.65-24.77 30.8-9.81 9.14-21.52 18.4-34.13 24.07-12.62 5.67-27.25 8.69-41.55 9.95-14.3 1.26-30.16.97-44.24-2.38-14.08-3.35-28.56-10.35-40.23-17.72-11.66-7.37-21.49-16-29.75-26.5-8.26-10.5-15.77-23.5-19.81-36.51-4.05-13.01-5.86-28.28-4.48-41.55C.74 91.29 6.04 78.28 12.13 66.48c6.08-11.8 13.91-23.47 23.74-32.72 9.84-9.25 22.58-17.37 35.28-22.77 12.7-5.4 26.83-8.5 40.92-9.62 14.09-1.13 36.49 2.11 43.6 2.88 7.1.78-.74.25-.96 1.78" transform="translate(10 42.13)"/></g><path fill="none" stroke="#000" stroke-linecap="round" stroke-width="4" d="M-.49-.5c2.66-3.78-3.92-18.8 17.24-22.16 21.15-3.35 90.14-2.22 109.71 2.03 19.58 4.25 6.53 19.66 7.76 23.49M1.46-1.81c2.5-3.56-6.02-16.31 14.75-19.23 20.76-2.92 90.07-2.5 109.83 1.7 19.77 4.19 7.67 19.81 8.75 23.48" transform="translate(72.075 55.914)"/><path fill="none" stroke="#000" stroke-linecap="round" stroke-width="4" d="M11.22 1.12c2.38-.26 4.88.24 6.84 1.2s4.1 2.79 4.94 4.53c.84 1.74.78 3.91.09 5.9-.69 2-2.08 4.75-4.22 6.08-2.15 1.33-5.85 2.42-8.64 1.91-2.78-.51-6.49-3.12-8.08-4.98C.57 13.9.67 11.69.75 9.58c.07-2.1.22-4.79 1.85-6.42C4.24 1.52 9.07.24 10.57-.22c1.49-.47 1.02.38 1.01.59m2.46-.1c2.49.24 6.55.82 8.29 2.36 1.74 1.55 2.15 4.81 2.13 6.92-.03 2.1-.83 3.81-2.28 5.71-1.45 1.89-3.69 5.21-6.43 5.63-2.75.42-7.63-1.9-10.05-3.12-2.42-1.23-3.48-2.57-4.5-4.23C.18 11.88-1.4 9.83-.43 7.8c.96-2.04 5.04-5.25 7.41-6.47C9.36.1 12.77.82 13.81.43c1.05-.38-.59-1.34-.56-1.41" transform="translate(128.949 10)"/><g fill-rule="evenodd" stroke-linecap="round"><path fill="#ced4da" stroke-width="0" d="m1.47-1.14-13.21 34.23-6.98 30.56-8.7 50.6-5.6 19.57-1.78 5.5 1.84 6.36 10.25 6.94 10.57 2.46 24.59 5.35 59.12 6.71 25.86.48 36.96-.91 36.8-7.15 12.27 1.16-.1-2.18 3.29-9.4-1.52-8.98-6.53-71.05-8.29-43.83-5.67-21-1.67-5.96-3.91-2.08-9.65 2.97-23.03 18.09-11.83 4.62-27.47 2.91-27.93 2.25-12.52-3.52-28.12-9.06L-.67 1.93" transform="translate(59.3 247.334)"/><path fill="none" stroke="#000" stroke-width="4" d="M1.15-.65c-2.79 7.97-11.56 28.81-16.79 48.02-5.22 19.21-11.95 50.55-14.57 67.25-2.62 16.71-8.33 25.36-1.14 32.99 7.19 7.62 26.91 9.27 44.29 12.75 17.39 3.49 42.11 7.03 60.03 8.15 17.93 1.12 30.96-.14 47.52-1.41 16.55-1.27 40.86-4.11 51.83-6.2 10.97-2.1 11.89.02 13.97-6.36 2.08-6.37-.47-17.78-1.49-31.9-1.02-14.11-1.94-36.46-4.61-52.79-2.68-16.33-7.82-32.67-11.44-45.2-3.63-12.54-1.3-29.49-10.3-30-9.01-.51-27.11 21.79-43.75 26.92-16.64 5.14-40.43 5.47-56.11 3.88-15.69-1.59-28.25-9.24-38.01-13.41C10.82 7.87 3.58 2.62.05.46m.24 1.17C-2.69 9.26-11.47 26.45-16.16 45.4c-4.7 18.95-9.23 53.2-11.72 69.91-2.49 16.71-9.85 22.86-3.2 30.34 6.64 7.49 26.06 10.83 43.07 14.56 17.01 3.74 40.79 6.95 58.99 7.85 18.21.9 33.55-1.15 50.24-2.45 16.7-1.29 39.34-3.3 49.92-5.32 10.59-2.02 11.24-.4 13.6-6.81 2.36-6.41 1.25-17.82.56-31.63-.7-13.81-1.73-34.88-4.74-51.22-3-16.34-9.65-34.54-13.29-46.81-3.65-12.26.27-26.31-8.58-26.79-8.84-.48-27.9 19.26-44.5 23.91-16.6 4.65-39.18 5.31-55.12 3.98-15.93-1.33-30.47-8.07-40.51-11.98S1.67 3.78-1.17 1.45" transform="translate(59.3 247.334)"/></g><path fill="none" stroke="#000" stroke-linecap="round" stroke-width="4" d="M-.03 1.13C-1.71 2.8-9.96 4.9-10.42 10.71c-.47 5.81-5.98 18.43 7.6 25.26C10.75 42.8 43.7 48.58 71.03 51.69c27.33 3.11 63.98 5.59 90.13 2.93 26.16-2.66 54.03-12.84 66.82-18.89 12.78-6.04 10.68-12.73 9.89-17.38-.79-4.65-12.01-8.52-14.63-10.51M-1.51.68c-1.25 1.76-6.24 5.26-6.57 11.31-.33 6.04-8.72 18.21 4.58 24.96C9.79 43.7 44.45 49.52 71.69 52.47c27.24 2.95 62.05 5.16 88.27 2.18 26.23-2.97 56.51-14.27 69.08-20.03 12.57-5.76 7.42-10.1 6.34-14.53-1.09-4.42-10.95-10.08-12.87-12.01" transform="translate(23.28 387.467)"/><path fill="none" fill-opacity=".7" stroke="#000" stroke-linecap="round" stroke-opacity=".7" stroke-width="4" d="M-.79 1.81C1.86 35.2.42 72.2-1.99 108.46M.8.06C.58 34.64.62 68.58-1.31 107.55m1.92.22c26.97-.39 52.23-.13 119.91 1.84M.19 108.41c42.09-.57 86.72.88 119.8 2.32m1 1.02c.19-25.23.18-47.84 2.73-115.3m-3.63 114.36c1.09-30.88 1.93-61.02 2.78-113.05" transform="translate(77.642 258.246)"/><path fill="none" fill-opacity=".7" stroke="#000" stroke-linecap="round" stroke-opacity=".7" stroke-width="4" d="M32.63.58c6.18-.12 14.14 2.71 18.64 6.61 4.5 3.9 7.94 10.88 8.37 16.78.44 5.9-2.12 13.73-5.76 18.62-3.65 4.89-10.08 8.9-16.12 10.73-6.05 1.84-14.45 2.49-20.14.28-5.69-2.2-11.26-8.07-13.99-13.49C.9 34.69-.3 26.93 1.22 21.07 2.75 15.22 7.44 8.61 12.79 5c5.34-3.62 16.6-5 20.5-5.63 3.91-.63 2.8 1.15 2.92 1.86M25.56-1.21c5.58-.89 14.1 3.4 19.52 6.8 5.41 3.4 10.71 7.99 12.98 13.59 2.27 5.6 3.17 14.4.63 20-2.53 5.6-9.76 11.18-15.83 13.6-6.08 2.43-14.68 2.46-20.62.95-5.95-1.51-11.12-5.52-15.05-10.02-3.93-4.5-8.89-11.06-8.52-17 .36-5.95 6.17-14.1 10.7-18.64C13.9 3.52 22.86.69 25.86-.57c3-1.27 1.4.6 1.52 1.05" transform="translate(109.292 293.945)"/><g stroke-linecap="round"><path fill="#868e96" stroke-width="0" d="m-.78-1.48 82.5 2.85.51 10.65-82.72 2.39" transform="rotate(22.011 -727.285 414.492)"/><path fill="none" stroke="#000" stroke-width="4" d="M-1.06-1.11C29.29-.9 53.42.56 82.33-.87M-.18-.09c21.27-1.1 42.82-.35 81.32-.7m.55 1.81c-.99 5.46-1.45 10.51-.86 11.63M80.5.56c-.3 4.18.66 7.24-.29 12.17m-1.21.2c-15.46 1.79-34.15-.55-77.51 1.53m79.19-1.98c-21.44 2.18-44.06 1.89-81.12-.08m.42 1.28C-1.32 9.62.63 3.57 1.1 1.16M-.01 12.93C-.22 7.92-.75 2.68.11.42" transform="rotate(22.011 -727.285 414.492)"/></g><path fill="none" fill-opacity=".7" stroke="#000" stroke-linecap="round" stroke-opacity=".7" stroke-width="4" d="M-.53.97c10.33.35 53.15-2.51 63.46.21C73.24 3.9 64.4 12.35 61.35 17.3c-3.06 4.95-10.02 10.77-16.73 13.59-6.7 2.83-16.08 4.94-23.51 3.35-7.44-1.59-17.72-7.1-21.09-12.88C-3.36 15.59.69 2.98.85-.39m.55.83C11.56.5 52.59-3.75 62.46-.71c9.87 3.04 1.04 13.91-1.84 19.38-2.89 5.48-8.72 10.81-15.47 13.46-6.75 2.65-17.68 3.88-25.03 2.43-7.35-1.45-15.44-5.65-19.08-11.13C-2.6 17.96-1.62 5.39-1.72 1.72" transform="translate(106.181 367.779)"/><path fill="none" fill-opacity=".7" stroke="#000" stroke-linecap="round" stroke-opacity=".7" stroke-width="4" d="M-.27-1.15c2.03-1.46 10.67-5.71 12.95-6.5M1.79.87c2.37-.83 11.4-6.02 13.19-7.46" transform="translate(21.369 414.362)"/><path fill="none" fill-opacity=".7" stroke="#000" stroke-linecap="round" stroke-opacity=".7" stroke-width="4" d="M-.77-.92C1.5-1.71 10.9-4.91 13.37-5.89M1.02 1.21C3.15.19 10.28-6.46 12.38-7.57" transform="translate(36.084 418.831)"/><path fill="none" fill-opacity=".7" stroke="#000" stroke-linecap="round" stroke-opacity=".7" stroke-width="4" d="M-.08.84c2.46-.98 11.97-6.17 14.11-7.61m-15.62 7C.84-.46 11.18-4.05 13.38-5.25" transform="translate(51.251 422.917)"/><g fill-opacity=".7" stroke-linecap="round" stroke-opacity=".7"><path fill="#fa5252" stroke-width="0" d="M33.36-.29c7.22-1.51 19.02.12 25.97 3.8 6.96 3.68 12.41 11.44 15.75 18.27 3.34 6.84 5.66 15.62 4.28 22.72-1.37 7.09-6.66 14.92-12.53 19.86-5.87 4.94-15.02 8.76-22.7 9.77-7.68 1-16.59-.21-23.37-3.72-6.77-3.5-14.04-10.84-17.27-17.31C.27 46.64-.19 38.73 1.41 31.62 3 24.5 6.71 15.64 13.05 10.4 19.38 5.15 34.18 1.73 39.42.14c5.24-1.58 5.01.06 5.06.74M41.89-.48c7.79-.76 17.42 2.52 23.13 6.84 5.72 4.32 9.42 11.89 11.16 19.1 1.74 7.2 1.86 16.8-.7 24.13-2.56 7.33-8.69 15.65-14.68 19.85-5.98 4.19-13.75 5.97-21.25 5.33-7.49-.64-17.44-4.7-23.71-9.18C9.57 61.1 4.36 54.48 1.92 47.88c-2.44-6.61-3.42-15.03-.74-21.92 2.68-6.9 10.15-15.23 16.81-19.44C24.65 2.31 37.33 1.74 41.14.69c3.81-1.04-.09-.82-.3-.44" transform="translate(61.558 188.586)"/><path fill="none" stroke="#000" stroke-width="4" d="M28.36.66C35.57-1.66 46.95-.9 54.3 1.97c7.35 2.87 14.07 9.62 18.16 15.92 4.1 6.31 6.77 14.73 6.39 21.93-.38 7.2-3.92 15.54-8.66 21.26-4.73 5.72-12.4 11.13-19.73 13.04-7.34 1.91-17.04 1.31-24.26-1.56-7.22-2.86-14.55-9.44-19.04-15.62-4.49-6.19-8.27-14.29-7.87-21.49.39-7.2 4.23-15.72 10.26-21.71 6.02-5.99 20.5-12.08 25.9-14.21 5.39-2.13 6.45.6 6.5 1.43M40.18.63C47.4.37 56.12 3.36 62.07 7.37c5.94 4 11.08 10.46 13.78 17.29 2.7 6.82 4.48 16.5 2.4 23.68-2.08 7.18-8.6 14.8-14.85 19.37-6.26 4.57-14.82 7.95-22.66 8.05-7.84.1-17.83-2.99-24.39-7.44-6.56-4.46-12.41-12.53-14.96-19.3-2.54-6.76-2.65-14.23-.32-21.29C3.4 20.67 8.82 11.21 15.36 6.68 21.9 2.14 36.61 1.41 40.32.52c3.71-.88-2.51.28-2.69.87" transform="translate(61.558 188.586)"/></g><text dominant-baseline="text-before-edge" font-family="Virgil, Segoe UI Emoji" font-size="13.948" style="white-space:pre" transform="rotate(16.023 -691.531 354.847)">experience</text><g fill-opacity=".7" stroke-linecap="round" stroke-opacity=".7"><path fill="#15aabf" stroke-width="0" d="M21.73 4.66C27.84 1.26 37.94-.31 45.59.68c7.65 1 16.53 4.73 22.04 9.96 5.52 5.23 10.02 14.2 11.05 21.42 1.04 7.21-1.38 15.49-4.84 21.88-3.45 6.38-8.89 13.18-15.87 16.44-6.98 3.27-18.37 4.13-26 3.14-7.64-1-14.43-4.05-19.81-9.11C6.77 59.36.82 50.59-.37 43.19c-1.18-7.39.55-16.16 5.4-23.14C9.89 13.07 23.45 4.39 28.77 1.32c5.32-3.07 8-.15 8.18.3m-5.73-.06C38.21-.48 48.68-.05 55.61 2.87c6.92 2.92 13.35 9.77 17.16 16.2 3.81 6.43 6.42 15.35 5.7 22.38-.72 7.03-4.61 14.33-10.04 19.8-5.42 5.48-14.88 11.27-22.51 13.03-7.64 1.76-16.39.64-23.3-2.46S8.33 62.38 4.46 55.68C.6 48.99-1.47 39-.59 31.64.3 24.28 4.53 16.67 9.77 11.53 15.01 6.38 27.11 2.56 30.85.77c3.74-1.8.93-.75 1.35-.03" transform="translate(140.764 179.62)"/><path fill="none" stroke="#000" stroke-width="4" d="M33.76-.3c7.3-1.68 17.21.07 24.04 3.31 6.84 3.23 13.31 9.48 16.95 16.1 3.63 6.62 5.9 16.38 4.85 23.61-1.06 7.24-5.72 14.42-11.17 19.82-5.46 5.4-13.73 11.08-21.56 12.56-7.83 1.49-18.33-.34-25.43-3.65-7.1-3.31-13.67-9.62-17.16-16.2C.79 48.66-.71 39.32.51 31.91c1.22-7.4 4.74-15.62 11.1-21.08C17.97 5.37 33.49.82 38.69-.86c5.2-1.68 4.27.75 4.14 1.6m15.7 2.24c6.8 2.77 12.37 11.53 15.72 18.52 3.35 6.99 5.62 16.27 4.37 23.43-1.24 7.17-6.28 14.62-11.86 19.56-5.57 4.93-14.13 8.97-21.59 10.07-7.47 1.1-16.19.14-23.2-3.46-7-3.59-15.47-11.57-18.83-18.13C-.22 46.42.47 38.72 1.83 31.75c1.36-6.97 3.9-15.32 9.46-20.58 5.56-5.26 16-9.75 23.91-10.98 7.91-1.22 20.06 2.97 23.54 3.64 3.49.68-2.08-.14-2.62.41" transform="translate(140.764 179.62)"/></g><text dominant-baseline="text-before-edge" font-family="Virgil, Segoe UI Emoji" font-size="13.948" style="white-space:pre" transform="translate(146.443 204.876)">experience</text><g fill-opacity=".7" stroke-linecap="round" stroke-opacity=".7"><path fill="#fab005" stroke-width="0" d="M46.64-.13c7.32.93 15.71 6.93 21.2 12.26 5.49 5.32 10.76 12.64 11.75 19.69.99 7.04-1.97 16.07-5.82 22.58-3.85 6.5-10.5 13.03-17.29 16.45-6.79 3.42-16.03 5.15-23.44 4.07-7.4-1.09-15.72-5.3-21-10.57C6.77 59.08 2.77 50.74 1.39 43.3.01 35.85.23 26.22 3.76 19.67 7.29 13.12 14.79 7 22.57 4.01c7.78-2.98 23.04-2.09 27.88-2.26 4.85-.17 1.63.76 1.21 1.25m-4.48-1.61c7.36.62 15.27 5.17 20.28 10.13 5.01 4.96 8.66 12.31 9.76 19.65 1.11 7.34.01 18.06-3.12 24.39-3.13 6.34-8.74 10.54-15.66 13.62s-18.07 5.65-25.85 4.85c-7.78-.81-15.28-4.52-20.83-9.67C6.22 59.21.78 50.55-.68 43.13c-1.46-7.43.04-17.02 3.67-23.31 3.63-6.3 11.19-11.03 18.1-14.48C28 1.89 40.32-.3 44.46-.89c4.13-.59 1.15 1.6 1.44 2.67" transform="translate(13.736 125.82)"/><path fill="none" stroke="#000" stroke-width="4" d="M46.86 1c7.21.52 15.73 4.55 20.93 9.84 5.2 5.3 8.99 14.54 10.24 21.92 1.25 7.38.81 15.87-2.75 22.35-3.57 6.48-11.36 13.26-18.64 16.54-7.27 3.27-17.26 4.6-25.01 3.11-7.75-1.5-16.31-6.59-21.51-12.07-5.2-5.48-8.8-13.73-9.7-20.79-.89-7.06.52-15.3 4.33-21.55 3.8-6.26 11.14-12.68 18.49-15.97C30.58 1.09 44.55.94 48.81.61c4.26-.33.38.98.01 1.79m4.97.99c6.79 2.28 15.48 7.86 19.6 13.95 4.13 6.08 5.8 15.14 5.16 22.56-.64 7.42-4.09 16.54-8.98 21.95-4.89 5.41-12.79 8.81-20.35 10.5-7.57 1.69-17.89 2.39-25.03-.36-7.13-2.75-13.8-9.99-17.78-16.14C2.42 49.7-.39 42.22.27 35.1c.67-7.11 4.9-16.3 10.13-21.93C15.64 7.54 24.24 3.02 31.67 1.33 39.11-.36 51.18 2.51 55 3.03c3.82.52-.41.81-.42 1.43" transform="translate(13.736 125.82)"/></g><text dominant-baseline="text-before-edge" font-family="Virgil, Segoe UI Emoji" font-size="13.948" style="white-space:pre" transform="translate(19.415 151.076)">experience</text><g fill-opacity=".7" stroke-linecap="round" stroke-opacity=".7"><path fill="#40c057" stroke-width="0" d="M47.9.78c7.31.9 16.71 6.04 21.91 11.43 5.21 5.4 8.52 13.65 9.31 20.92.79 7.26-.53 16.19-4.57 22.68-4.04 6.49-12.6 13.37-19.66 16.26-7.07 2.9-15.23 2.84-22.74 1.09-7.5-1.75-16.83-6.4-22.29-11.59C4.39 56.38.06 49.05-.64 42.02c-.69-7.04 2.23-16.34 6.32-22.65C9.77 13.06 16.63 7.14 23.92 4.15c7.29-3 20.59-2.52 25.49-2.77 4.89-.25 3.98.81 3.89 1.25m-32.92.07c6.38-3.95 17.47-4.56 25.41-3.2C53.74.87 62.57 5.73 68.04 10.89c5.47 5.16 9.37 12.42 10.56 19.59 1.19 7.18-.02 16.65-3.41 23.45-3.39 6.8-9.87 14.14-16.94 17.34-7.06 3.2-17.87 3.16-25.46 1.85-7.6-1.31-14.91-4.48-20.11-9.71-5.2-5.24-9.92-14.64-11.1-21.68-1.17-7.03.62-14.28 4.06-20.52 3.44-6.24 14.1-14.39 16.6-16.92 2.51-2.54-1.53.95-1.56 1.7" transform="translate(93.689 117.6)"/><path fill="none" stroke="#000" stroke-width="4" d="M41.54-.41c7.37-.05 16.28 4.04 22.45 8.84 6.16 4.81 12.61 12.83 14.56 19.98 1.96 7.15-.01 16.16-2.82 22.9-2.81 6.74-7.41 13.65-14.01 17.55-6.6 3.9-17.74 6.23-25.58 5.84-7.85-.39-15.71-3.65-21.51-8.17C8.84 62.02 3.37 54.85 1.35 47.59-.68 40.33-.34 30 2.48 22.96c2.83-7.04 8.67-13.71 15.83-17.59C25.48 1.49 40.42.16 45.48-.32c5.06-.48 3.35 2 3.19 2.8M20.98 3.72C27.11-.01 38-.66 46.05.65c8.04 1.31 17.81 5.99 23.2 10.94 5.38 4.95 8.12 11.43 9.12 18.74.99 7.3.38 18.39-3.16 25.09-3.55 6.71-11.2 11.92-18.12 15.13-6.93 3.21-15.63 5.08-23.44 4.14-7.81-.95-18.1-4.46-23.45-9.83-5.34-5.37-7.89-14.76-8.61-22.37-.72-7.61.69-16.99 4.3-23.3 3.61-6.3 14.76-12.3 17.36-14.53 2.59-2.24-2.09.44-1.8 1.11" transform="translate(93.689 117.6)"/></g><text dominant-baseline="text-before-edge" font-family="Virgil, Segoe UI Emoji" font-size="13.948" style="white-space:pre" transform="rotate(-24.069 417.51 -152.938)">experience</text><g fill-opacity=".7" stroke-linecap="round" stroke-opacity=".7"><path fill="#be4bdb" stroke-width="0" d="M48.71 1.33c7.38 1.34 16 6.57 21.04 11.97 5.05 5.4 8.5 13.23 9.21 20.43.71 7.21-1.02 16.34-4.97 22.82-3.94 6.48-11.33 13.16-18.72 16.05-7.38 2.89-17.95 3.13-25.58 1.3-7.63-1.83-15.14-6.51-20.21-12.26S-.25 46.8-.73 39.39C-1.2 31.98 2.29 23.2 6.62 17.2c4.33-6.01 10.54-11.44 18.64-13.83 8.09-2.38 24.2-.94 29.92-.49 5.72.45 4.64 2.69 4.41 3.19M38.09.08C45.2-.7 55.47 1.29 61.94 5.49c6.46 4.2 12.54 12.66 14.95 19.8 2.41 7.14 1.67 16.26-.49 23.05-2.16 6.79-6.3 13.24-12.47 17.7-6.17 4.46-16.87 8.53-24.54 9.04-7.66.51-15.04-1.49-21.44-5.96-6.4-4.47-14.39-14.01-16.93-20.86C-1.52 41.4.2 34.54 2.7 27.97 5.19 21.4 9.85 13.32 15.99 8.81 22.13 4.3 35.6 2.44 39.56.93c3.96-1.52.33-1.55.19-1.18" transform="translate(173.642 108.633)"/><path fill="none" stroke="#000" stroke-width="4" d="M25.96 1.68c6.67-2.87 17.08-1.86 24.51.17 7.44 2.04 15.47 6.32 20.09 12.03 4.61 5.71 7.38 14.77 7.61 22.2.24 7.44-2.37 16.28-6.23 22.41-3.86 6.14-9.91 11.82-16.95 14.4-7.04 2.58-17.71 3.16-25.29 1.08-7.59-2.09-15.42-7.74-20.24-13.59C4.64 54.52 1.22 46.03.78 38.83c-.44-7.21 1.2-15.51 6.04-21.66 4.83-6.16 18.43-12.76 22.96-15.28 4.53-2.51 3.96-.13 4.19.21m10.11-.52c7.28.22 16.81 2.86 22.51 7.62 5.7 4.77 10.41 13.6 11.68 20.96 1.27 7.36-.91 16.59-4.04 23.18-3.13 6.58-8.19 12.74-14.72 16.33-6.54 3.58-16.74 6.17-24.49 5.19-7.75-.98-16.16-6.19-22.02-11.08C7.13 58.88 1.22 52.5-.15 45.49c-1.37-7.01 1.33-16.91 4.91-23.77 3.59-6.85 10.23-13.9 16.58-17.36C27.69.9 39.12 1.72 42.84.95c3.73-.77.53-1.62.84-1.23" transform="translate(173.642 108.633)"/></g><text dominant-baseline="text-before-edge" font-family="Virgil, Segoe UI Emoji" font-size="13.948" style="white-space:pre" transform="translate(179.32 133.89)">experience</text><g fill-opacity=".7" stroke-linecap="round" stroke-opacity=".7"><path fill="#e64980" stroke-width="0" d="M48.79 1.66c7.25 1.4 16.51 6.41 21.49 12.02 4.98 5.6 7.91 14.3 8.39 21.64.48 7.33-1.31 16.21-5.51 22.37-4.21 6.16-12.31 12.08-19.71 14.58-7.39 2.5-17.1 2.38-24.66.43-7.56-1.95-15.95-6.71-20.7-12.12-4.76-5.41-7.5-13-7.83-20.35-.32-7.36 1.75-17.41 5.89-23.77C10.29 10.1 17.29 4.24 25.1 2.07c7.82-2.18 22.59.73 27.95 1.33 5.36.6 4.4 1.86 4.19 2.25M43.74 1.6c7.17-.14 16.25 2.21 22.25 7.07 6 4.87 12.17 14.75 13.75 22.12 1.57 7.36-.71 15.33-4.31 22.07-3.6 6.74-10.73 14.79-17.28 18.37-6.56 3.58-14.3 3.96-22.06 3.1-7.76-.86-18.4-3.18-24.51-8.24C5.48 61.03 1.03 51.4-.54 43.94c-1.56-7.46-.85-16.15 2.76-22.63S14.15 8.45 21.1 5.06c6.95-3.39 19.01-3.4 22.81-4.1 3.8-.69-.16-.39-.02-.09" transform="translate(47.361 57.822)"/><path fill="none" stroke="#000" stroke-width="4" d="M20.94 4.6c6.5-3.63 17.22-6 25.16-4.76 7.94 1.24 17.07 6.75 22.46 12.2 5.39 5.45 8.88 13.39 9.86 20.5.98 7.1-.5 15.64-3.97 22.11-3.46 6.47-9.99 13.45-16.83 16.68-6.85 3.24-16.49 3.99-24.24 2.75C25.63 72.83 16.43 69 11.1 63.87c-5.33-5.12-8.67-13.18-9.71-20.54-1.04-7.36-.1-16.88 3.48-23.62 3.59-6.73 14.53-14 18.03-16.82 3.49-2.81 2.59-.77 2.94-.06m.13-.75C32.84-.58 43.21-1.75 50.63.38c7.42 2.12 14.98 8.28 19.89 14.46 4.91 6.17 9.46 15.05 9.56 22.59.11 7.55-4.4 16.69-8.91 22.69-4.51 5.99-10.72 11.23-18.14 13.28-7.41 2.05-18.65 1.2-26.35-.98-7.69-2.19-15.34-6.57-19.8-12.14C2.43 54.7-.19 46.56-.02 38.97c.16-7.58 3.5-17.85 7.89-24.2C12.25 8.43 22.84 3.1 26.28.89c3.44-2.2 2.01.05 2.23.66" transform="translate(47.361 57.822)"/></g><text dominant-baseline="text-before-edge" font-family="Virgil, Segoe UI Emoji" font-size="13.948" style="white-space:pre" transform="rotate(-14.056 397.991 -164.515)">experience</text><g fill-opacity=".7" stroke-linecap="round" stroke-opacity=".7"><path fill="#4c6ef5" stroke-width="0" d="M53.83 1.99c7.15 2.07 14.45 8.4 18.51 14.53 4.06 6.13 6.03 14.75 5.86 22.25-.17 7.49-2.36 17.12-6.87 22.73-4.52 5.61-12.52 9.19-20.23 10.94-7.72 1.75-18.67 1.84-26.08-.43-7.4-2.27-14.17-7.21-18.33-13.2C2.53 52.82-.1 43.34.06 36.05c.16-7.29 2.7-15.08 7.58-20.97C12.52 9.2 21.2 2.7 29.35.73 37.5-1.24 51.5 2.19 56.53 3.27c5.04 1.09 3.17 3.17 3.03 3.97m-27.7-5.75C38.89-.29 50.08.66 57.2 3.61c7.12 2.96 13.65 8.95 17.38 15.62 3.73 6.66 6.27 17.18 5.01 24.39-1.27 7.21-7.21 13.7-12.61 18.85-5.4 5.15-12.48 10.71-19.78 12.04-7.3 1.32-17.17-.64-24.02-4.11-6.85-3.46-13.1-10.16-17.1-16.7-4.01-6.53-7.76-15.54-6.94-22.49.82-6.95 6.14-14.16 11.88-19.2C16.75 6.97 30.03 2.87 33.56.97c3.52-1.9-1.42-.76-1.4-.37" transform="translate(125.072 45.867)"/><path fill="none" stroke="#000" stroke-width="4" d="M52.51 2.59c7.35 1.47 15.03 6.07 19.39 11.98 4.37 5.91 6.77 15.91 6.81 23.51.04 7.6-2.23 16.13-6.55 22.07-4.33 5.94-11.9 11.36-19.41 13.58-7.52 2.21-18.19 2.12-25.67-.29-7.48-2.42-14.74-8.14-19.2-14.23C3.41 53.11.28 44.11.3 36.86c.01-7.25 3.09-15.34 7.67-21.15C12.55 9.89 20.23 4.32 27.78 1.98c7.56-2.34 20.96-.48 25.52-.32 4.55.15 1.91.51 1.82 1.25m-25.65-.04C36.55.31 45.76.48 52.86 2.59c7.1 2.11 14.67 6.87 19.22 12.95 4.56 6.08 8.31 16.1 8.11 23.54-.2 7.43-4.17 15.61-9.32 21.07-5.14 5.46-14.31 9.48-21.55 11.71-7.25 2.22-14.81 3.81-21.91 1.64-7.1-2.18-16.34-8.56-20.71-14.68C2.33 52.7.9 43.94 1.19 36.78c.28-7.15 2.61-14.89 7.22-20.9C13.01 9.87 25.44 2.98 28.8.73c3.37-2.26-.34 1.12-.21 1.61" transform="translate(125.072 45.867)"/></g><text dominant-baseline="text-before-edge" font-family="Virgil, Segoe UI Emoji" font-size="13.948" style="white-space:pre" transform="rotate(13.997 -189.79 577.184)">experience</text><g fill-rule="evenodd" stroke-linecap="round"><path fill="none" stroke="#000" stroke-width=".5" d="M0 0s0 0 0 0m0 0s0 0 0 0m.08 5.61C.9 4.37 2.6 3.46 4.22-.43M-.43 6.05C1.32 4.27 3.15 2.53 4.86.46M-.83 12.37C4.89 7.52 6.16 5.42 9.11.02M-.21 11.67C2.66 8.66 6.17 5.77 11.06-.71M1.32 19.68c1.69-7.74 5.75-9.65 16.23-20.82M1.23 17.36C6.1 11.31 10.86 7.33 15.53.73M1.47 22.94c3.38-7.48 11.17-12.57 21.71-24.8M2.22 21.07C9.32 13.94 17.55 5.71 20.57-.32M3.71 26.91c7-10.69 14.88-15.61 22.06-24.69M3.8 24.98c8.34-9.3 16.97-19.16 22.69-25.67M7.6 28.06C16.92 18 24.82 6.59 33.3-.62M7.08 27.48C12.96 21.72 18.24 14.41 31.67.1M10.76 29.08c9.1-7.46 16.42-14.25 27.58-30.22M11.29 30.64c4.9-6.79 11.28-13.47 26.55-29.9M13.5 30.83c8.72-8.75 15.78-18.16 29.91-29.14M14.84 32.16C22.67 22.44 29.56 15.09 42.8.11M18.99 33.75c9.63-12.38 18.08-22.33 26.79-32M20.9 32C25.69 25.07 31.66 17.35 47.67.37M24.58 31.34c8.63-7.77 16.89-19.37 28.86-29.23M25.15 33.86C32.38 22.8 41.36 13.18 52.26.42M29.87 34.57C39.51 20.84 48.48 8.24 55.21 1.99M29.18 32.71C38.54 23.93 46.33 12.95 57.56.99M35.49 31.07c8.29-9.75 19.3-19.17 25.34-28.83M35.8 32.09c6.78-7.92 14.78-18.18 25.46-28.93m-19.5 31.4c4.63-8.04 9.63-14.11 21.88-31.59M38.96 32.62c8.74-7.54 15.14-15.7 25.88-28.51M46.1 32.54c8.82-12.01 17.71-20.25 22.57-27.48M47.69 29.77c6.95-7.55 15.55-17.71 21.37-24.08" transform="translate(105.634 368.035)"/><path fill="none" stroke="#000" d="M-.91 1c10.16.29 53.25-3.25 63.01.15 9.76 3.41-.46 15.08-4.45 20.27-3.98 5.18-11.45 9.31-19.46 10.85-8.02 1.54-22.38.75-28.64-1.61-6.26-2.37-7.51-7.59-8.92-12.59-1.42-4.99.53-14.41.44-17.39M.82.47C11.27.98 54.62-.71 64.5 2.44c9.88 3.16 0 11.83-4.39 16.96-4.38 5.14-13.82 12.43-21.93 13.86-8.1 1.42-20.14-2.7-26.72-5.3-6.58-2.6-10.61-5.6-12.75-10.31-2.14-4.71-.16-15.01-.1-17.96" transform="translate(105.634 368.035)"/></g><text dominant-baseline="text-before-edge" font-family="Virgil, Segoe UI Emoji" font-size="15.976" style="white-space:pre" transform="rotate(6.116 -3857.43 894.014)">REPLAY </text><path fill="none" fill-opacity=".7" stroke="#000" stroke-linecap="round" stroke-opacity=".7" stroke-width="4" d="M-.74 1.1C1.52-.17 11.18-5.48 13.73-6.72M1.07.63c2.11-1.14 9.65-4.29 11.85-5.81" transform="rotate(-20.1 1306.594 -375.025)"/><path fill="none" fill-opacity=".7" stroke="#000" stroke-linecap="round" stroke-opacity=".7" stroke-width="4" d="M-1.1-.96C1.09-2.14 10.37-6.4 12.94-7.54M.52 1.14C2.53.15 9.48-5.07 11.73-6.42" transform="rotate(-20.1 1312.416 -418.392)"/><path fill="none" fill-opacity=".7" stroke="#000" stroke-linecap="round" stroke-opacity=".7" stroke-width="4" d="M.52-.01c2.25-1.2 9.96-5.32 11.96-6.52M-.67-1.06C2.05-2.71 12.09-7.7 14.68-8.55" transform="rotate(-20.1 1315.274 -462.14)"/><text dominant-baseline="text-before-edge" font-family="Virgil, Segoe UI Emoji" font-size="16.467" style="white-space:pre" transform="rotate(-2.935 8282.277 -2442.014)">MEMORY</text></svg>